<?xml version='1.0' encoding='utf-8'?>
<svg xmlns="http://www.w3.org/2000/svg" version="1.1" id="Layer_1" x="0px" y="0px" width="864px" height="864px" viewBox="0 0 864 864" enable-background="new 0 0 864 864"> <metadata/> <g> <path d="M765.4749,484.9948c-28.7376-53.5329-138.0853-11.5906-187.7391,10.9815c-3.3379-5.0262-6.651-9.9657-10.0956-15.4634 c0.1082-1.4162,0.6107-2.7535,0.6107-4.1882c0-34.6419-32.0369-63.8527-76.5842-74.9532l0.1422-0.2304 c-1.8877,0-3.4167-1.529-3.4167-3.4167c0-1.8862,1.529-3.4152,3.4167-3.4152c5.1019,0,9.2375-4.1356,9.2375-9.2391 c0-5.1019-4.1356-9.2375-9.2375-9.2375c0,0,1.4919-26.9628,32.0863-26.9628s48.5871-18.5678,48.5871-48.1342 c0,0,32.1853-1.0714,32.8037,15.9489c-0.3092,5.2611-2.7859,13.3082-0.3092,17.9494c0,0-19.1878,30.6377-17.331,60.0371 c0.3092,9.2855,12.0698,22.9014,37.7556,28.4717c25.6857,5.5704,71.1777,7.4272,117.908-3.7136 c6.1903-1.8568,17.6402-7.7363,16.4018-26.3042c-1.2368-18.5694-1.2368-53.2299-13.925-61.2754 c0,0-10.8315-57.2527-88.5087-75.5113l-85.3533-15.7587c-3.2529-3.0952-6.7994-6.2985-10.1729-6.2985 c-6.2584,0-10.1327,1.192-13.7087,4.1727c0,0-67.9449-7.4503-95.3608-7.4503c-27.4157,0-95.3607,7.4503-95.3607,7.4503 c-3.576-2.9807-7.4503-4.1727-13.7086-4.1727c-6.2568,0-13.1119,11.0263-17.5815,11.9214 c-4.4695,0.8936-44.9987,8.3439-59.0042,11.9199c-14.0055,3.576-22.9462,6.5552-32.7805,14.8991 c-1.1332,0.9616-2.5571,2.1212-4.1186,3.3734c-29.9497,2.0825-73.5941,10.2177-103.9922,38.1035 c-22.6834,20.791-34.1858,49.1638-34.1858,84.3144c0,28.818,9.9193,52.4785,29.5106,70.3383 c17.0094,15.5067,39.8103,25.2683,64.5514,31.3304c22.3247,16.2534,40.1891,10.6444,40.1891,10.6444s1.6357-1.3543,4.2578-3.528 c32.6893,2.9266,64.9209,1.6311,89.2524-0.1762c-13.5324,18.9018-27.5364,34.4456-46.5201,46.9144 c-21.1574,8.9407-27.1081,20.2639-27.1081,31.2252c0,47.4941,206.5991,41.1616,206.5991,41.1616s206.5992,6.3325,206.5992-41.1616 c0-10.9614-5.9507-22.2845-27.1081-31.2252c-4.5948-3.0179-8.5542-6.4578-12.6342-9.8188 c57.8509-0.7978,129.9021-7.0963,146.1586-32.5347C769.2596,506.4414,772.0796,497.2641,765.4749,484.9948z M638.5303,354.1 c0,0,4.6891,1.042,7.8137,1.8228c3.1261,0.7808,5.4698,4.4279,6.5119,6.2506c1.042,1.8228-1.563,4.6891-3.6456,5.2101 c-2.084,0.5195-10.68-1.8243-13.8045-2.8663c-3.1261-1.0421-4.4279,3.6471-4.1681,5.7311 c0.2613,2.0825-1.8228,17.1903-2.3438,29.4318c-0.521,12.2415-4.9488,12.5012-4.9488,12.5012s-5.9909-1.563-8.8557-4.1681 c-2.8647-2.6035-2.3438-5.7296-2.3438-8.3331c0-2.605,4.6876-27.609,4.9489-31.7771c0.2597-4.1666-4.4279-4.6876-8.8557-5.2086 c-4.4278-0.521-3.126-4.4278-3.126-7.2926s8.0749-3.6471,12.7625-3.1261c4.6891,0.521,5.2101-1.5615,5.7311-2.8648 c0.5211-1.3018,1.3018-8.8557,1.8228-10.9382c0.521-2.0841-2.3438-3.9068-5.4699-4.1681c-3.126-0.2597-1.8228-4.9489-1.8228-7.0329 c0-2.0825,3.3858-2.8648,4.9489-2.8648c0,0,15.1063,2.0841,24.7427,3.3858c9.6364,1.3033,11.1995,5.4698,10.9397,9.1169 c-0.2613,3.6455-12.5027,2.3438-16.9305,1.042c-4.4279-1.3033-4.4279,6.5103-5.7296,10.4172S638.5303,354.1,638.5303,354.1z M658.0645,268.1483c4.938,0.4298,21.8794,5.2101,27.609,9.1169s19.0131,12.2415,23.4409,14.845 c4.4279,2.6051,16.6693,14.5868,18.4921,20.3164c1.8243,5.7296,6.2521,20.8359,9.1169,24.7427s5.2086,7.0329,6.5103,9.638 c1.3033,2.6035,6.2522,14.324,6.5119,27.0865c0.2613,12.7625,2.084,24.2232,1.8228,25.7863 c-0.2597,1.5615-1.5615,6.5103-4.4278,7.5524c-2.8648,1.042-7.2927,2.6051-8.0734-3.1261 c-0.7823-5.7296-3.3858-27.6075-4.6891-33.0774c0-2.084-4.1666-3.9068-7.0313-1.8228c-2.8648,2.0841-11.9818,6.5103-18.4921,7.8137 c-6.5119,1.3018-21.6182,1.042-21.0972-6.5119c0.521-7.5524,6.5103-6.2506,9.3767-7.8137 c2.8647-1.563,9.6364-3.3858,11.9802-0.2597c2.3438,3.1245,6.5119,4.9489,8.8557,1.0405 c2.3438-3.9068,4.6876-9.3751,12.5012-9.1154c0,0,1.3033-14.8466-4.9473-27.8688c-6.2521-13.0222-15.1078-26.3058-31.2561-32.5564 c-16.1483-6.2521-25.7847-13.8045-30.2125-16.9306C659.6275,273.8795,652.0751,267.6273,658.0645,268.1483z M699.478,333.5239 c0,0,7.8137,1.042,11.7205,1.042s7.8137,1.8228,9.1154,6.2506c1.3033,4.4278-4.6876,5.9909-6.2506,5.9909 s-15.6273-0.2613-18.7534-0.521c-3.1245-0.2613-3.6456-5.4698-3.1245-8.5959C692.7064,334.5659,697.1342,333.5239,699.478,333.5239 z M694.0081,315.8125c0.7808-0.2613,2.1196-3.0287,3.9068-3.3858c5.2086-1.042,13.2835,4.1666,16.6693,7.0314 c3.3858,2.8663-2.605,3.6471-4.9489,2.605c-2.3438-1.042-11.4607-1.563-14.3255-1.8228 C692.4451,319.9791,693.2274,316.0722,694.0081,315.8125z M642.9582,304.092c0.7823-1.8228,5.2101,0.2597,6.7716,1.042 c2.084,1.042,12.7625,4.9489,18.4936,9.6364c5.7296,4.6876-2.8647,4.4279-5.9908,3.9068 c-3.1261-0.521-18.4921-3.1261-23.1812-5.2086C634.3638,311.3847,642.1774,305.9148,642.9582,304.092z M588.524,275.441 c17.1888,0.2613,33.8581,10.159,38.5472,14.5868c4.6876,4.4279,2.3438,11.9802,1.563,16.1483 c-0.7823,4.1666-4.9489,4.1666-5.4698,0.2597c-7.8137-18.2324-33.8596-21.6182-37.2454-21.8779 c-3.3858-0.2613-5.2101-1.563-4.9489-4.9489C581.2298,276.2233,585.3979,275.3946,588.524,275.441z M129.9945,459.7883 c-16.8456-15.349-25.3796-35.868-25.3796-60.9755c0-31.4401,10.1172-56.659,30.0301-74.9517 c21.2842-19.5341,50.5908-28.382,75.8127-32.3383c-10.0848,7.5586-20.7988,15.3907-28.0636,20.5375 c-14.3039,10.1327-19.3702,32.4821-19.3702,32.4821c-12.2183,8.9407-5.3632,21.7542-4.1712,25.0318 c1.192,3.2791-6.2583,16.6879-13.4103,34.5693c-7.1519,17.8799-4.1727,33.6741-3.2791,34.8661 c0.8952,1.192,3.576,7.7472,5.0663,15.4959c1.4904,7.7472,17.8798,19.9655,17.8798,19.9655 c0.3942,2.6221,1.2863,4.8453,2.6391,7.1427C153.3117,476.2628,140.3143,469.2006,129.9945,459.7883z M180.8682,341.891 c-0.9972,1.1873-3.4677,1.662-6.0342,2.4226c-2.5649,0.7607-0.9307-5.139-0.6648-6.1285c0.5226-1.948,3.7058-1.3791,4.7046-0.9987 C179.871,337.5667,181.8669,340.7021,180.8682,341.891z M216.127,472.1519c-8.5727,0.419-20.6998-2.3005-21.8501,3.3456 c-1.1503,5.6446,6.8907,20.7276,9.4571,22.5952c0,0-39.0156-12.8939-24.7102-36.4353c0,0-12.3466-17.314-3.879-35.2959 c1.2554-1.7779,2.0918-7.4225-3.2405-7.3189c-5.3323,0.1051-17.4593-0.4174-17.4593-0.4174s-3.1353-7.9451,4.9148-8.4692 c8.0486-0.5226,13.486,0.3138,15.6814-0.6261c2.1954-0.9416,10.0353-5.541,4.4943-8.0502 c-5.5394-2.5092-13.2758-5.8548-6.2722-10.2455c4.8097-1.4641,14.2189-3.6595,10.9768-7.8415 c-3.2405-4.182-5.3307-8.9902-3.1353-12.0219c2.1954-3.0318,9.0953-6.6912,7.9451-9.4091 c-1.1503-2.7179-5.2271-4.5995-8.8866-3.1369c-3.6595,1.4641-10.5594,2.5092-11.8132,0.1051s7.1087-8.8866,12.5461-8.2589 c5.4358,0.6277,13.7999,1.0451,14.6363-2.1954c0.8364-3.242,1.1487-14.1137,3.3441-17.5645 c2.1969-3.4492,5.4374-3.9718,7.424-1.359c1.9851,2.6143,4.0769,5.6461,3.2405,8.0502c-0.8364,2.4041-1.5677,10.1404,4.182,10.1404 c5.7497,0,9.1989,1.9867,5.9584,4.8097s-12.4409,6.3774-16.7265,6.6912c-4.2871,0.3138-5.1236,2.299-5.1236,4.3907 c0,2.0902,1.7779,5.0184,2.4056,7.1087c0.6261,2.0918,0.7313,7.9451-1.7779,10.9768c-2.5092,3.0318-7.2138,7.5276-3.9733,9.0953 c3.242,1.5692,11.082,4.9148,7.0051,8.4691c-4.0769,3.5544-9.0953,3.2405-8.4676,6.1671c0.6261,2.9282,1.9851,3.7646,5.7497,3.9733 c3.763,0.2087,12.2322-0.6277,12.1271,1.8815c-0.1051,2.5092,0.6277,5.2271-5.9584,5.8548 c-6.5876,0.6277-13.8014-0.4174-14.2188,6.6912c-0.4174,7.1087,4.7046,30.8403,6.3774,34.7084s7.8415,5.6461,10.2455,5.3323 c2.4041-0.3138,17.0404-0.5226,17.1455,1.4641C224.5946,467.3422,224.6997,471.7345,216.127,472.1519z M517.1314,492.1421 c0-5.4868,6.4299-9.9348,14.3611-9.9348c7.9311,0,14.3595,4.4479,14.3595,9.9348c0,5.4853-6.4284,9.9333-14.3595,9.9333 C523.5613,502.0754,517.1314,497.6274,517.1314,492.1421z M525.0162,518.4479c0,5.4869-6.43,9.9332-14.3611,9.9332 s-14.3595-4.4464-14.3595-9.9332s6.4284-9.9348,14.3595-9.9348S525.0162,512.961,525.0162,518.4479z M545.5474,438.4871 c0,0-5.7296,27.088-27.3477,33.5999c0,0-7.0035,1.2925-7.203-7.053c0-2.7813,2.1861-7.9466,6.5567-8.1445 C521.9241,456.6901,534.6031,453.2625,545.5474,438.4871z M514.5619,425.7942c7.9312,0,14.3611,4.4479,14.3611,9.9348 c0,5.4868-6.4299,9.9333-14.3611,9.9333s-14.3595-4.4464-14.3595-9.9333C500.2024,430.2421,506.6307,425.7942,514.5619,425.7942z M503.5371,470.9089c0,19.429-22.7684,35.18-50.8552,35.18c-28.0867,0-50.8551-15.751-50.8551-35.18s22.7684-35.18,50.8551-35.18 C480.7687,435.729,503.5371,451.4799,503.5371,470.9089z M485.4269,529.9705c0,5.4869-6.4299,9.9348-14.3611,9.9348 c-7.9311,0-14.3595-4.4479-14.3595-9.9348s6.4284-9.9348,14.3595-9.9348C478.997,520.0356,485.4269,524.4836,485.4269,529.9705z M448.6577,529.9705c0,5.4869-6.4284,9.9348-14.3595,9.9348c-7.9311,0-14.3611-4.4479-14.3611-9.9348s6.43-9.9348,14.3611-9.9348 C442.2293,520.0356,448.6577,524.4836,448.6577,529.9705z M385.0927,463.4911c0,5.4869-6.4299,9.9348-14.3611,9.9348 c-7.9311,0-14.3595-4.4479-14.3595-9.9348s6.4284-9.9348,14.3595-9.9348C378.6627,453.5562,385.0927,458.0042,385.0927,463.4911z M376.4411,435.729c0-5.4869,6.4299-9.9348,14.3611-9.9348c7.9311,0,14.3595,4.4479,14.3595,9.9348 c0,5.4868-6.4284,9.9333-14.3595,9.9333C382.871,445.6622,376.4411,441.2158,376.4411,435.729z M373.8716,482.2073 c7.9312,0,14.3611,4.4479,14.3611,9.9348c0,5.4853-6.4299,9.9333-14.3611,9.9333c-7.9311,0-14.3595-4.4479-14.3595-9.9333 C359.512,486.6553,365.9404,482.2073,373.8716,482.2073z M394.709,508.5131c7.9312,0,14.3595,4.4479,14.3595,9.9348 s-6.4284,9.9332-14.3595,9.9332c-7.9311,0-14.3611-4.4464-14.3611-9.9332S386.7778,508.5131,394.709,508.5131z M429.1623,409.2794 c7.9311,0,14.3611,4.4479,14.3611,9.9348c0,5.4853-6.4299,9.9333-14.3611,9.9333c-7.9296,0-14.3596-4.4479-14.3596-9.9333 C414.8027,413.7274,421.2327,409.2794,429.1623,409.2794z M416.5667,386.8898c-1.7563,0-3.1663-1.4224-3.1663-3.1663 c0-1.7439,1.41-3.1663,3.1663-3.1663h68.4953c1.7563,0,3.1663,1.4224,3.1663,3.1663c0,1.7439-1.41,3.1663-3.1663,3.1663H416.5667z M490.5613,419.2142c0,5.4853-6.4299,9.9333-14.3595,9.9333c-7.9312,0-14.3611-4.4479-14.3611-9.9333 c0-5.4868,6.4299-9.9348,14.3611-9.9348C484.1314,409.2794,490.5613,413.7274,490.5613,419.2142z M485.1224,311.9057 c0,0-32.4404-1.4626-45.0591,1.3018c-12.6187,2.7643,2.605,10.4187,2.605,10.4187s45.5785-2.6051,52.8712-1.8228 c7.2942,0.7808-0.7807,9.3752-13.0222,11.7205c-12.2415,2.3438-120.5904-1.563-124.2375-1.563s-4.1681-1.042-4.1681-4.1681 c0-3.1245,3.3873-3.3858,3.3873-3.3858s42.1927,0.521,52.0904,1.0421c9.8977,0.521,8.3347-3.9068,8.5959-6.5119 c0.2597-2.6035-4.6891-2.8648-4.6891-2.8648s-31.7756-0.2597-42.454-1.3018s-5.7296-11.9818-5.7296-11.9818 c1.5615-1.8228,9.1154-0.2597,16.929-0.2597c7.8137,0,84.3885-1.042,99.7545-2.084c15.3675-1.042,22.6602-1.042,23.4409,4.9489 C506.2195,311.3847,485.1224,311.9057,485.1224,311.9057z M539.5581,263.1995c0.5195-1.5615,0-5.4683,0-7.8137 c0-2.3438,2.4149-3.7012,3.9068-4.1665c4.1666-1.3018,1.5615,12.7625,1.5615,12.7625s2.605,1.042,4.1681,1.3018 c1.563,0.2613,2.605-4.1666,2.605-4.1666s-1.042-9.638,1.3018-15.6273c2.3438-5.9909,6.7716,2.0825,6.7716,2.0825 s-0.7807,48.7062-0.7807,52.613s-0.2613,8.5944-3.6471,8.3347c-3.3858-0.2613-4.9489-9.1169-5.2086-9.8977 c-0.2613-0.7808,0.521-15.8886,0.521-23.4409c0-7.5539-3.3858-5.4699-8.075-6.7716 C537.9951,267.1063,539.0371,264.7625,539.5581,263.1995z M526.5344,251.479c5.4698-2.8648,5.2101,6.5119,5.2101,6.5119 s3.6456,40.891,3.6456,48.4449s-3.6456,14.0643-7.0329,16.1483c-3.3858,2.084-4.1666-2.8648-5.7296-10.6784 c-1.563-7.8137-2.084-52.092-2.3438-55.2166C520.0225,253.5631,523.9973,252.8086,526.5344,251.479z M361.6656,248.0932 c2.3438-1.8228,70.063-3.6455,70.063-3.6455c16.6693-8.0749,17.971,3.3858,17.971,3.3858s32.0369,0.2597,47.6641,2.3438 c15.6273,2.084,14.0642,11.9802,14.0642,11.9802s-47.9238-0.2597-54.1744-0.2597s-8.5959,2.084-8.5959,2.084 s-0.521,15.366,0,21.8779c0.521,6.5119-3.9068,7.0329-9.3751,7.0329c-5.4698,0-5.2101-5.9909-5.2101-5.9909 s0-14.8466,0.7823-19.0131c0.7807-4.1681-5.4698-5.2101-8.0749-4.9489c-2.6051,0.2597-48.4449,1.8228-54.1745,1.8228 c-5.7311,0-13.5448,3.1261-17.9726-2.084C350.2065,257.4699,359.3219,249.916,361.6656,248.0932z M281.9337,268.7513 c5.5626-6.1594,25.627-6.7562,26.819-6.7562s12.5167-0.9926,16.8873-2.9792c4.3706-1.9867,11.9199-6.1594,14.7012-9.338 c2.7813-3.1786,3.3781,2.9808,3.576,5.3647c0.1995,2.384-11.9199,4.9659-17.8798,6.3573c-5.96,1.3899-7.7487,6.3573-8.5434,8.9407 c-0.7947,2.5819-5.1653,4.768-5.1653,4.768s-27.2163-0.5968-30.7923-1.3914C277.9604,272.9225,280.9721,269.8134,281.9337,268.7513 z M337.1626,272.7246l-0.9926,55.2289c0,0-13.1134-3.1786-12.7161-18.6745s1.1935-31.7864,1.1935-31.7864 S329.6133,270.5385,337.1626,272.7246z M256.1058,301.1329c6.1594-6.5552,21.6552-1.7872,21.6552-1.7872 c13.3113-13.1119,24.0392-13.5092,28.0125-14.106c3.9733-0.5952,5.7605,5.5626-0.1995,5.1653 c-5.9599-0.3973-22.4484,11.5226-27.0184,17.2846c-4.5685,5.7605-8.7413,11.3231-14.5033,15.0985 c-5.7605,3.7739-15.0985,5.3632-18.6745,1.192C241.8019,319.8075,249.9479,307.6897,256.1058,301.1329z M279.5498,393.5146 c-3.9733,3.1786-9.338,2.5819-11.722-2.9807c-2.384-5.5627,5.3493-5.3555,9.338-7.7472 c6.9525-4.1727,12.7145,0.5952,12.7145,2.9792S283.5231,390.3359,279.5498,393.5146z M297.0323,397.6857 c2.7813,3.576-2.1861,6.3573-3.9733,7.1519c-1.7888,0.7947-7.7487,2.9808-12.914,3.3781c-5.1653,0.3973,2.081-8.8356,2.9807-9.7354 C286.7017,394.9044,294.251,394.1098,297.0323,397.6857z M265.2444,345.436c-4.7679,0-2.7813,0.1994-3.7739-1.5893 c-0.9941-1.7872,4.6876-5.6817,6.9525-7.9466c2.384-2.384,5.3647,1.5893,6.5567,5.3647 C276.1717,345.0387,270.0123,345.436,265.2444,345.436z M266.6358,362.7207c-0.3973,4.3706-6.7546,4.9674-9.7354,4.1728 c-2.9792-0.7962-0.5952-7.3514-0.5952-9.5375c0-2.1846,1.0127-4.5036,1.7872-4.1712 C260.8737,354.3767,267.0331,358.35,266.6358,362.7207z M244.6992,495.7939c22.9044-18.9884,59.8314-49.6106,67.3265-55.8906 c11.0247-9.2375,6.2568-16.6879,5.3632-18.1783c-0.8936-1.4904-0.5952-7.1519-1.7872-14.0055 c-1.192-6.8551-7.7487-9.2391-7.7487-9.2391c-2.0856-4.768-13.4103-18.7735-13.4103-18.7735 c-0.8936-21.7542-15.4958-47.978-15.4958-47.978c0-29.5029,33.9725-30.9933,33.9725-30.9933 c0,41.7212,31.5885,53.0444,62.1829,53.0444s38.4529,22.0526,38.4529,22.0526c-5.1019,0-9.2375,4.1356-9.2375,9.2375 c0,5.1035,4.1357,9.2391,9.2375,9.2391c1.8877,0,3.4167,1.529,3.4167,3.4152c0,1.8877-1.529,3.4167-3.4167,3.4167l0.1422,0.2304 c-44.5473,11.1005-76.5842,40.3112-76.5842,74.9532c0,1.4347,0.5025,2.772,0.6107,4.1882 c-3.0009,4.7896-5.8827,9.0412-8.7954,13.4721C308.0648,495.7413,277.1364,497.6352,244.6992,495.7939z M263.4819,582.1753 c-4.9102-3.1013-1.8088-7.7533,4.1341-11.371c14.4724-5.4281,56.0807-38.2488,56.0807-38.2488 c-4.652,12.4053-20.1572,29.7194-26.618,33.5968c-6.4609,3.8759-4.3938,7.2355-1.2925,10.3368 c4.652,4.1356,28.6866,14.2142,28.6866,14.2142c-20.9333,0.2582-38.7667-8.528-38.7667-8.528 C278.987,589.6689,268.3921,585.2767,263.4819,582.1753z M373.9906,615.1058c-60.2117,0.7405-99.6942-16.0401-99.6942-16.0401 c31.0922,13.5726,100.9295,5.1823,100.9295,5.1823C377.1986,611.1588,373.9906,615.1058,373.9906,615.1058z M452.6819,578.437 c-7.2106,0-14.2064-0.5952-21.0522-1.4688c-1.226,1.846-1.7857,4.6598-1.6218,6.7979c0.2473,3.208,0,5.4297-3.9486,6.1702 c-59.9643,8.6362-90.0702-17.7686-90.0702-17.7686c46.3918,15.5469,76.745,10.1188,81.6799,8.8835 c2.7983-0.6988,2.1583-3.8465,1.1039-6.5196c-47.1632-10.0724-81.6598-40.1087-81.6598-76.0432 c0-3.545,0.8627-6.9278,1.5089-10.3507c7.407,39.2136,55.3587,69.5977,114.0599,69.5977c58.7013,0,106.653-30.3842,114.06-69.5977 c0.6462,3.4229,1.509,6.8056,1.509,10.3507C568.2509,542.6432,516.5084,578.437,452.6819,578.437z M631.4727,564.4594 c9.8482-4.7432,13.8849,4.332,12.5306,6.988c-1.3558,2.6561-23.4827,11.2922-31.2252,13.166 c-7.7426,1.8738-2.0933,8.0579-2.0933,8.0579c10.8036,1.4749,35.2047-8.2929,35.2047-8.2929 c-55.2289,36.0442-115.8301,26.8886-115.8301,26.8886l4.9055-4.72c27.139,0.7297,54.6909-7.6606,61.2444-10.5764 c6.5536-2.9158,0.5473-6.6448-2.9158-6.5536c-47.0612,2.8169-41.899-7.5724-37.686-7.8755 C580.6176,580.1979,621.6245,569.2026,631.4727,564.4594z M755.0361,505.1551c-12.8862,20.151-83.1594,26.7355-149.0405,26.8144 c-7.3931-7.6993-14.3564-16.071-21.0059-25.4276c55.467-24.9962,147.5841-55.9262,169.3538-15.5608 C758.326,498.4268,756.6439,502.632,755.0361,505.1551z"/> <path d="M430.7408,484.9237c0,1.7439,1.41,3.1663,3.1663,3.1663h49.8688c1.7563,0,3.1663-1.4224,3.1663-3.1663v-17.0806 c0-1.7439-1.41-3.1663-3.1663-3.1663s-3.1663,1.4223-3.1663,3.1663v13.9143H433.907 C432.1507,481.7574,430.7408,483.1798,430.7408,484.9237z"/> </g> </svg>